<?xml version="1.0" standalone="no"?>
<!DOCTYPE svg PUBLIC "-//W3C//DTD SVG 20010904//EN"
 "http://www.w3.org/TR/2001/REC-SVG-20010904/DTD/svg10.dtd">
<svg version="1.0" xmlns="http://www.w3.org/2000/svg"
 width="1080.000000pt" height="1064.000000pt" viewBox="0 0 1080.000000 1064.000000"
 preserveAspectRatio="xMidYMid meet">
<metadata>
Created by potrace 1.16, written by Peter Selinger 2001-2019
</metadata>
<g transform="translate(0.000000,1064.000000) scale(0.100000,-0.100000)"
fill="#000000" stroke="none">
<path d="M1980 9955 c-7 -8 -19 -15 -27 -15 -8 0 -24 -5 -36 -12 -12 -7 -26
-13 -32 -13 -5 -1 -28 -9 -50 -19 -22 -9 -49 -21 -60 -26 -107 -46 -187 -90
-210 -115 -5 -6 -27 -19 -47 -28 -21 -10 -38 -22 -38 -27 0 -6 -5 -10 -11 -10
-12 0 -102 -61 -107 -73 -2 -4 -8 -5 -13 -1 -5 3 -9 0 -9 -6 0 -6 -11 -15 -25
-20 -14 -5 -25 -13 -25 -18 0 -4 -16 -14 -35 -22 -19 -8 -35 -18 -35 -22 0 -5
-11 -13 -25 -18 -14 -5 -25 -14 -25 -20 0 -6 -4 -9 -9 -6 -5 3 -14 -1 -21 -9
-7 -8 -18 -15 -25 -15 -7 0 -15 -7 -19 -15 -3 -8 -11 -15 -17 -15 -6 0 -50
-28 -98 -63 -47 -34 -99 -69 -116 -77 -16 -8 -34 -21 -38 -27 -4 -7 -14 -13
-22 -13 -8 0 -19 -9 -25 -19 -5 -11 -23 -22 -40 -26 -17 -4 -35 -15 -40 -26
-6 -10 -17 -19 -24 -19 -8 0 -16 -7 -20 -15 -3 -8 -12 -15 -19 -15 -8 0 -20
-7 -27 -15 -7 -9 -15 -13 -17 -11 -3 2 -13 -3 -23 -12 -29 -26 -43 -36 -75
-52 -16 -8 -34 -21 -38 -27 -4 -7 -14 -13 -22 -13 -8 0 -18 -6 -22 -14 -4 -7
-23 -21 -40 -30 -18 -9 -33 -20 -33 -24 0 -4 -15 -14 -32 -21 -39 -17 -130
-110 -122 -123 3 -5 -4 -12 -16 -15 -13 -3 -19 -11 -16 -20 3 -8 1 -11 -4 -8
-6 3 -10 -3 -10 -15 0 -12 -4 -19 -8 -16 -11 6 -13 -15 -10 -79 7 -119 2
-1813 -5 -1837 -5 -19 -2 -31 9 -43 13 -12 14 -18 4 -31 -11 -12 -10 -13 5 -7
15 5 17 3 12 -11 -5 -11 -3 -15 5 -10 7 5 9 0 6 -14 -4 -16 -2 -19 10 -15 9 4
13 2 9 -4 -4 -6 0 -16 8 -23 8 -7 15 -18 15 -25 0 -7 7 -15 15 -19 8 -3 20
-17 27 -31 7 -15 17 -24 25 -21 8 3 16 0 19 -8 7 -19 18 -20 251 -20 117 -1
213 -3 213 -6 0 -3 18 -6 40 -7 30 -2 40 1 40 12 0 13 27 15 170 15 153 0 169
-2 163 -17 -6 -14 2 -16 76 -10 45 3 88 10 96 17 8 6 19 9 25 5 5 -3 10 -1 10
6 0 7 3 10 6 6 4 -3 -3 -26 -15 -50 -11 -24 -21 -51 -21 -61 0 -9 -4 -15 -9
-12 -5 4 -7 -14 -4 -40 2 -25 0 -51 -5 -57 -10 -12 -11 -151 -2 -160 3 -3 6
18 8 46 1 28 5 53 7 56 3 2 4 -135 4 -305 -1 -170 -3 -300 -6 -289 -3 11 -9
24 -14 30 -13 13 -9 -56 4 -72 5 -7 6 -16 3 -22 -19 -30 62 -131 105 -131 36
0 46 -16 14 -22 -14 -3 -25 -1 -25 3 0 5 -5 9 -12 9 -6 0 -9 -3 -5 -6 3 -3
-10 -20 -29 -37 -19 -18 -34 -42 -34 -54 0 -13 -3 -23 -7 -23 -5 0 -8 -13 -8
-30 0 -38 15 -40 16 -2 1 21 3 19 10 -13 10 -48 9 -572 -1 -670 l-7 -70 -3 70
c-2 39 -3 82 -4 97 0 14 -3 24 -6 21 -8 -8 -6 -193 3 -193 4 0 7 -15 7 -34 0
-19 6 -41 13 -48 7 -7 21 -32 31 -55 16 -36 24 -43 57 -48 21 -4 43 -13 50
-21 9 -12 6 -14 -20 -14 -20 0 -31 5 -31 14 0 9 -7 12 -20 9 -11 -3 -17 -9
-14 -14 3 -5 -1 -9 -9 -9 -8 0 -20 -7 -27 -15 -7 -8 -17 -12 -23 -8 -6 3 -7 1
-3 -5 4 -7 1 -12 -8 -12 -12 0 -13 -6 -5 -35 10 -36 7 -738 -4 -787 -3 -16 -1
-30 4 -34 5 -3 9 -14 9 -24 0 -10 18 -37 41 -61 36 -38 45 -69 20 -69 -5 0
-13 -9 -16 -20 -4 -11 -11 -18 -16 -15 -5 3 -6 -1 -3 -9 3 -9 2 -16 -3 -16
-19 0 -42 -79 -32 -109 10 -27 7 -740 -3 -791 -3 -17 1 -29 14 -38 10 -7 18
-20 18 -28 0 -8 4 -14 8 -14 5 0 15 -11 22 -25 7 -14 19 -25 25 -25 7 0 18 -7
25 -15 7 -8 16 -13 20 -10 5 3 15 -2 23 -10 9 -8 25 -15 36 -15 27 0 27 -16 1
-30 -16 -9 -19 -8 -14 7 4 15 3 15 -8 -1 -7 -11 -28 -35 -45 -53 -18 -19 -33
-40 -33 -48 0 -8 -4 -15 -9 -15 -5 0 -19 -17 -31 -37 -16 -28 -20 -46 -15 -73
9 -54 15 -210 6 -175 -18 72 -25 -242 -8 -420 2 -22 7 -49 11 -60 4 -11 12
-32 18 -48 6 -15 14 -27 19 -27 5 0 9 -8 9 -17 0 -24 120 -135 138 -128 10 3
12 0 8 -10 -5 -13 -2 -14 16 -4 18 10 20 9 15 -5 -8 -19 6 -21 33 -4 10 7 23
9 27 5 4 -5 1 -12 -7 -17 -10 -6 2 -7 34 -4 35 5 51 3 57 -7 6 -10 9 -11 9 -1
0 9 261 12 1270 12 840 0 1270 -3 1270 -10 0 -5 9 -10 21 -10 13 0 18 4 13 12
-5 7 -3 8 5 3 14 -8 54 29 43 41 -4 4 1 4 10 1 12 -4 32 6 60 33 24 21 47 39
51 39 5 0 17 11 28 25 11 15 25 26 31 26 5 0 22 10 37 23 15 12 40 31 55 42
26 18 63 49 107 90 9 8 20 15 26 15 9 0 30 17 94 75 9 8 19 15 24 15 4 0 23
14 42 30 18 17 37 30 42 30 4 0 14 11 21 25 7 14 17 25 22 25 12 0 109 70 141
102 16 17 33 26 40 22 7 -4 9 -4 5 1 -8 8 44 55 60 55 6 0 17 8 24 18 7 9 26
26 42 36 28 18 58 47 103 101 13 14 27 24 33 20 5 -3 10 -2 10 3 0 6 7 9 16 8
9 0 19 6 21 14 4 13 3 13 -6 0 -6 -8 -11 -10 -11 -4 0 19 13 24 28 11 13 -9
14 -9 8 1 -4 6 -2 12 3 12 6 0 11 6 11 14 0 8 4 18 10 21 6 3 7 -1 4 -9 -10
-26 11 -18 26 9 7 13 16 24 19 23 20 -2 30 4 36 21 3 12 12 18 20 15 8 -3 19
4 25 18 10 19 10 21 -1 11 -7 -7 -18 -13 -23 -13 -6 0 0 7 12 16 13 9 29 13
37 10 9 -3 24 6 37 24 11 16 24 27 28 25 4 -3 7 3 6 12 0 9 5 18 13 21 8 3 11
0 7 -7 -4 -6 7 -3 23 7 33 18 42 35 14 25 -19 -7 -18 -5 11 17 13 10 17 10 12
3 -14 -25 9 -11 32 18 22 27 23 35 16 92 l-9 62 -5 -60 c-5 -54 -7 -57 -14
-31 -6 19 -5 46 2 73 7 24 11 74 10 111 0 37 -3 52 -5 35 -2 -18 -9 -33 -15
-33 -6 0 -8 17 -3 47 10 71 13 226 5 238 -4 6 -11 24 -14 41 -6 29 -4 34 24
47 17 9 27 11 24 5 -4 -6 -1 -9 7 -6 8 3 13 12 13 21 -1 9 2 14 8 11 15 -10
76 25 83 47 6 17 9 19 16 8 7 -11 9 -9 9 8 0 16 5 20 20 16 12 -3 20 0 20 6 0
7 -5 9 -12 5 -7 -4 -8 -3 -4 5 4 7 17 11 28 9 12 -2 23 3 25 12 4 13 3 13 -6
0 -7 -9 -11 -10 -11 -3 0 18 19 26 34 14 10 -9 15 -8 20 4 4 11 2 14 -6 9 -7
-4 -8 -3 -4 4 4 6 13 9 20 6 8 -3 16 4 19 17 4 15 11 20 22 15 17 -6 47 8 77
36 10 10 23 18 29 18 6 0 8 7 5 16 -3 8 -2 12 4 9 6 -3 10 -2 10 4 0 6 7 8 15
5 9 -4 17 1 21 12 8 22 44 53 62 54 6 0 12 -7 12 -16 0 -9 11 -29 25 -46 29
-34 33 -29 8 10 -12 18 1 10 35 -23 30 -28 50 -55 47 -63 -2 -7 -1 -11 4 -8 5
3 14 -1 21 -9 7 -8 17 -12 23 -8 6 3 7 1 3 -5 -4 -7 0 -22 8 -34 15 -20 21
-18 17 6 -1 5 5 4 13 -4 9 -7 16 -18 16 -24 0 -6 -5 -4 -11 4 -9 13 -10 13 -6
0 2 -8 11 -15 20 -15 8 0 19 -4 24 -9 4 -5 3 -6 -4 -2 -7 4 -13 3 -13 -2 0 -6
18 -17 40 -26 47 -19 246 -24 220 -5 -11 8 -6 9 20 5 19 -3 29 -3 23 0 -7 3
-13 9 -13 13 0 12 76 32 96 25 15 -5 16 -4 4 5 -8 5 -11 13 -7 17 4 4 12 3 19
-4 13 -13 81 18 96 44 7 13 13 14 31 5 12 -7 21 -8 21 -2 0 5 -6 12 -12 15 -7
3 0 3 15 -1 23 -4 29 -2 34 16 6 23 19 28 26 9 3 -8 6 -5 6 6 1 12 6 16 16 12
8 -3 15 -1 15 5 0 6 6 9 14 6 9 -4 17 1 19 11 4 15 5 14 6 -2 1 -15 4 -16 16
-6 8 7 12 16 9 21 -3 5 2 6 10 3 9 -3 16 -1 16 6 0 6 5 8 11 4 6 -3 15 0 20 7
6 10 9 10 9 2 0 -10 6 -10 28 0 15 6 29 15 32 18 7 9 80 39 80 33 0 -3 6 1 14
8 8 7 11 17 8 22 -3 5 0 6 6 2 7 -4 18 -4 24 0 7 5 20 9 29 9 24 2 149 74 149
87 0 5 7 7 16 4 15 -6 15 -4 3 11 -12 14 -12 16 0 8 9 -5 19 -2 27 10 8 10 16
16 20 13 8 -9 49 35 46 49 -1 7 5 9 18 6 12 -3 20 0 20 6 0 7 -5 9 -12 5 -7
-4 -4 2 6 14 15 17 22 19 33 11 11 -10 12 -8 7 6 -5 13 -4 16 4 11 15 -9 114
73 105 87 -4 6 0 8 10 4 9 -3 16 -3 16 1 -4 22 3 33 19 30 12 -2 16 3 14 17
-2 11 0 17 4 12 4 -4 16 1 27 10 11 10 17 12 13 5 -7 -11 -4 -12 13 -3 11 7
21 14 21 17 0 3 -4 2 -10 -1 -5 -3 -10 -2 -10 4 0 18 21 23 38 9 15 -11 15
-11 5 3 -11 13 -9 20 11 38 12 12 29 19 37 16 14 -5 59 28 59 42 0 4 -11 -4
-26 -18 -19 -18 -23 -19 -18 -6 7 19 57 49 75 45 6 -2 14 4 16 12 4 13 3 13
-7 0 -10 -13 -11 -13 -7 0 2 8 12 14 21 12 9 -2 19 4 22 12 3 9 10 13 16 10
13 -8 37 27 30 46 -5 13 -3 13 11 2 19 -16 41 -6 33 15 -3 8 -2 12 3 9 8 -5
22 5 84 59 9 8 21 15 26 15 6 0 16 8 23 18 7 10 28 27 46 37 19 12 30 25 27
33 -2 7 -1 11 3 8 4 -2 18 9 31 25 13 16 29 29 35 29 7 0 21 7 32 16 10 8 13
12 5 8 -10 -5 -12 -3 -7 5 5 7 14 10 21 7 7 -2 12 2 11 11 0 9 6 18 14 20 12
4 12 3 1 -5 -9 -7 -10 -12 -2 -16 16 -10 32 3 29 22 -2 10 4 17 15 17 10 0 21
5 25 10 4 6 16 15 27 21 11 7 19 19 19 28 -1 9 2 13 7 10 5 -3 9 -1 9 4 0 6 8
9 18 8 11 0 16 6 16 17 -2 14 1 15 12 6 10 -8 14 -9 14 0 0 6 11 16 24 22 13
6 29 22 36 34 7 13 21 26 32 28 13 4 17 10 12 18 -5 8 -3 10 5 4 14 -8 54 29
43 39 -3 4 1 4 11 0 11 -4 19 0 23 10 4 9 22 23 40 31 19 8 34 19 34 24 0 17
-17 13 -24 -5 -4 -9 -9 -14 -13 -11 -11 11 19 37 42 37 25 0 49 22 37 35 -4 5
-2 5 4 2 6 -3 21 3 33 14 19 18 21 27 15 67 -3 26 -12 59 -19 74 -7 15 -17 42
-20 60 -7 28 -8 30 -18 12 -10 -17 -11 -16 -19 11 -9 35 1 48 37 48 33 0 118
31 123 45 2 6 -6 8 -17 5 -12 -3 -21 -9 -21 -14 0 -5 -4 -9 -10 -9 -5 0 -10 4
-10 9 0 12 57 34 69 26 7 -4 8 1 4 12 -5 15 -3 16 8 6 19 -18 34 -16 19 2 -8
9 -9 15 -2 15 6 0 14 -4 17 -10 9 -14 22 -12 28 4 4 11 1 13 -11 10 -15 -5
-15 -4 1 6 9 6 22 8 29 4 8 -5 9 -2 5 9 -8 20 4 22 22 5 11 -11 13 -10 8 3 -4
13 -1 15 14 12 13 -4 21 2 29 21 9 25 23 31 65 28 16 -2 17 0 5 7 -8 6 -11 13
-7 17 3 4 13 1 22 -6 13 -11 15 -10 10 1 -7 19 87 72 111 62 12 -4 15 -3 10 5
-5 8 -2 10 8 6 9 -3 28 4 43 17 15 12 20 19 11 16 -43 -17 -51 -17 -28 -3 14
8 33 13 42 10 19 -6 62 37 77 75 5 15 13 35 17 46 4 11 8 22 9 25 1 3 7 19 14
35 7 17 15 42 18 57 3 15 9 26 13 23 4 -3 13 15 19 40 6 25 16 45 22 45 5 0 8
4 4 9 -3 5 -1 12 4 15 5 3 12 22 15 41 4 19 11 35 16 35 5 0 7 7 4 15 -4 8 -2
15 3 15 5 0 15 23 22 50 7 28 17 48 22 44 5 -3 9 2 9 11 0 22 24 95 31 95 4 0
12 20 19 45 7 25 17 45 23 45 6 0 8 3 4 6 -3 3 10 42 29 86 19 44 34 86 34 93
0 8 7 21 15 29 9 9 15 21 13 28 -1 7 8 32 20 56 12 23 20 42 16 42 -4 0 -2 6
5 13 8 10 7 17 -2 27 -10 10 -8 12 7 6 15 -5 17 -2 13 15 -3 11 -3 18 0 15 12
-12 34 34 31 68 -1 19 -5 33 -8 31 -4 -3 -16 4 -26 13 -10 10 -22 19 -26 20
-14 4 -83 37 -88 42 -3 3 -17 11 -32 19 -16 8 -28 18 -28 22 0 4 -13 10 -29
14 -15 3 -37 14 -48 24 -10 10 -36 24 -57 31 -20 6 -40 18 -42 25 -3 7 -16 16
-29 19 -14 4 -46 20 -72 36 -26 16 -59 35 -73 42 -14 7 -29 18 -33 25 -4 7
-14 13 -21 13 -15 0 -124 57 -141 74 -7 6 -35 22 -63 36 -29 14 -52 30 -52 36
0 6 14 17 30 24 17 7 30 17 30 22 0 5 4 7 9 4 5 -3 14 1 21 9 7 8 19 15 26 15
8 0 14 5 14 12 0 6 3 9 6 5 4 -3 12 -1 20 6 33 30 42 35 48 30 3 -4 6 -2 6 4
0 9 21 20 51 27 3 0 13 9 23 19 10 9 21 17 26 17 5 0 15 6 22 13 7 7 32 21 56
31 26 12 41 24 38 32 -3 8 0 11 10 7 8 -3 26 3 42 13 15 11 39 24 55 31 15 7
27 17 27 24 0 6 7 9 15 5 8 -3 15 -1 15 4 0 6 7 10 15 10 9 0 18 6 21 13 2 7
25 22 49 32 25 11 45 23 45 28 0 4 7 7 15 7 9 0 18 7 21 15 4 8 10 12 15 9 5
-3 20 7 33 23 19 22 22 31 13 42 -10 12 -9 13 6 8 16 -6 18 -3 11 25 -6 31 -5
32 11 18 17 -14 17 -13 6 8 -8 15 -11 61 -10 134 3 94 1 112 -14 123 -9 6 -24
28 -32 49 -8 20 -19 36 -23 36 -5 0 -16 15 -26 33 -41 77 -48 87 -57 87 -6 0
-7 5 -4 10 3 6 1 10 -4 10 -6 0 -18 15 -26 33 -30 61 -40 77 -47 77 -4 0 -17
20 -28 44 -11 24 -23 46 -28 48 -9 4 -72 101 -72 111 0 4 -8 16 -17 26 -31 34
-43 50 -43 57 0 4 -11 22 -25 40 -14 18 -25 36 -25 39 0 4 -20 36 -45 72 -25
35 -45 68 -45 73 0 4 -15 12 -32 15 -18 4 -38 11 -44 16 -22 17 -166 14 -199
-4 -16 -9 -37 -17 -46 -17 -8 0 -19 -4 -25 -10 -19 -19 -108 -59 -117 -53 -6
3 -7 1 -3 -5 5 -8 -1 -12 -16 -12 -13 0 -33 -7 -44 -15 -12 -8 -24 -11 -28 -8
-3 3 -6 1 -6 -5 0 -6 -16 -16 -35 -22 -19 -6 -35 -16 -35 -21 0 -5 -10 -9 -23
-9 -12 0 -33 -7 -45 -16 -12 -8 -22 -12 -22 -8 0 4 -8 1 -18 -7 -19 -16 -73
-44 -115 -59 l-27 -10 15 30 c8 16 15 38 15 50 0 11 4 20 9 20 5 0 15 16 21
35 6 19 16 35 21 35 5 0 8 3 7 8 -1 4 4 20 10 35 7 16 12 35 12 43 0 8 5 14
11 14 5 0 8 4 5 9 -3 5 1 14 9 21 8 7 15 20 15 30 0 9 8 28 18 41 11 13 22 38
26 54 4 17 13 37 21 45 7 8 18 32 25 53 6 20 16 37 22 37 6 0 9 3 5 6 -7 7 19
75 31 84 5 3 19 34 32 70 19 50 24 84 23 149 0 46 -5 86 -10 90 -5 3 -12 13
-15 22 -6 16 -87 59 -112 59 -7 0 -19 7 -26 15 -7 8 -22 15 -34 15 -12 0 -32
7 -44 16 -12 8 -27 12 -32 9 -6 -3 -10 -2 -10 3 0 6 -12 13 -27 17 -15 3 -46
15 -70 26 -23 10 -46 19 -50 19 -4 0 -30 12 -58 25 -27 14 -58 25 -67 25 -9 0
-19 4 -23 9 -3 5 -28 17 -55 26 -28 9 -50 21 -50 26 0 5 -3 8 -7 7 -14 -3 -97
25 -113 38 -8 6 -30 15 -47 19 -18 3 -33 11 -33 15 0 5 -7 7 -16 3 -9 -3 -19
-2 -23 3 -8 12 -63 38 -74 36 -4 -1 -15 4 -23 13 -9 8 -26 15 -39 15 -13 0
-30 6 -37 13 -7 7 -33 19 -58 26 -25 7 -52 16 -60 19 -28 10 -40 10 -40 2 0
-5 -14 -11 -31 -15 -17 -4 -33 -13 -36 -21 -3 -8 -10 -14 -15 -14 -5 0 -24
-10 -41 -22 -18 -13 -28 -16 -23 -7 5 9 3 9 -6 -2 -15 -18 -60 -44 -71 -41 -4
1 -7 -2 -7 -7 0 -5 -16 -15 -35 -22 -19 -7 -35 -16 -35 -21 0 -4 -22 -17 -50
-29 -27 -12 -50 -25 -50 -30 0 -5 -9 -9 -19 -9 -11 0 -26 -6 -33 -13 -7 -7
-27 -20 -45 -27 -17 -8 -30 -17 -27 -21 2 -4 -7 -10 -21 -13 -14 -4 -36 -17
-48 -29 l-22 -22 -6 40 c-6 44 -55 155 -69 155 -5 0 -11 14 -15 31 -4 17 -13
33 -21 36 -8 3 -14 11 -14 19 0 7 -8 19 -17 26 -10 7 -25 27 -33 43 -14 28
-23 40 -74 94 l-19 21 -2658 0 c-2349 0 -2658 -2 -2669 -15z m3721 -1144 c52
-33 103 -83 127 -126 15 -27 17 -102 22 -815 l5 -785 25 0 c26 0 20 -10 180
303 32 61 55 112 52 112 -4 0 0 6 8 13 9 7 15 19 15 27 -1 8 7 26 17 39 10 13
18 30 18 37 0 8 4 14 9 14 5 0 15 16 21 35 6 19 16 35 22 35 6 0 8 7 4 15 -3
8 -2 15 3 15 5 0 15 20 22 44 7 25 16 43 20 40 4 -2 13 12 19 31 6 19 15 35
19 35 7 0 34 71 35 93 1 4 6 11 11 15 10 7 29 45 85 167 31 67 39 85 59 123 6
9 16 31 24 47 35 77 142 281 151 290 6 6 25 16 41 24 146 65 191 59 433 -60
508 -248 632 -309 697 -339 105 -50 105 -50 105 -144 0 -66 -5 -90 -25 -131
-30 -61 -91 -171 -112 -205 -9 -14 -29 -47 -43 -75 -45 -84 -82 -149 -94 -165
-13 -18 -34 -55 -55 -95 -8 -16 -32 -57 -53 -89 -21 -33 -38 -63 -38 -68 0 -8
-6 -17 -36 -51 -5 -7 -13 -21 -18 -32 -6 -16 -9 -17 -17 -5 -8 12 -10 10 -6
-7 3 -14 0 -23 -6 -23 -7 0 -6 -4 2 -9 8 -5 21 -7 30 -4 14 4 14 3 1 -6 -8 -5
-12 -13 -8 -16 4 -4 28 6 54 21 27 16 57 30 68 31 11 2 23 8 27 14 3 6 9 10
13 10 3 -1 22 6 42 14 20 8 40 15 45 15 5 0 9 4 9 9 0 5 11 12 24 15 14 3 87
36 163 72 76 36 158 75 183 87 25 12 47 22 50 23 3 0 25 10 50 22 25 12 51 22
58 22 6 0 12 4 12 8 0 4 23 16 51 26 42 16 57 17 89 7 33 -10 47 -25 111 -124
41 -61 76 -116 79 -122 3 -5 41 -64 85 -130 44 -66 82 -124 85 -130 3 -5 39
-62 81 -125 42 -63 103 -158 137 -210 33 -52 66 -101 72 -108 7 -7 12 -30 12
-50 0 -31 -7 -43 -42 -74 -23 -20 -57 -42 -76 -48 -19 -6 -34 -16 -34 -20 0
-5 -7 -7 -15 -4 -8 4 -15 1 -15 -4 0 -6 -10 -14 -22 -18 -13 -4 -26 -12 -30
-18 -6 -8 -8 -7 -8 1 0 7 -7 10 -15 7 -8 -4 -12 -10 -9 -15 3 -5 -3 -6 -12 -2
-13 5 -15 3 -9 -7 5 -8 4 -11 -2 -7 -10 6 -121 -45 -133 -61 -3 -4 -24 -16
-47 -26 -24 -11 -43 -22 -43 -25 0 -3 -20 -14 -45 -24 -25 -11 -45 -23 -45
-28 0 -5 -5 -9 -11 -9 -6 0 -37 -15 -69 -34 -32 -19 -61 -32 -64 -29 -3 4 -6
2 -6 -4 0 -6 -17 -18 -37 -27 -37 -16 -101 -51 -153 -84 -14 -9 -26 -15 -28
-14 -1 2 -10 -5 -20 -14 -11 -12 -13 -19 -5 -21 7 -3 9 -11 6 -19 -7 -19 -23
-18 -23 2 0 8 -5 12 -10 9 -13 -8 -5 -53 13 -74 8 -9 17 -24 20 -34 5 -13 13
-16 27 -12 19 6 62 -13 283 -121 37 -18 67 -30 67 -26 0 4 4 2 8 -3 4 -6 79
-46 167 -91 406 -205 388 -193 406 -276 15 -65 -3 -125 -71 -230 -33 -51 -95
-148 -137 -216 -324 -510 -366 -573 -396 -588 -42 -22 -88 -13 -194 40 -233
117 -307 154 -423 213 -69 34 -131 63 -137 63 -7 0 -13 5 -13 10 0 6 -7 10
-15 10 -8 0 -15 4 -15 9 0 4 -21 16 -47 26 -27 10 -50 21 -53 25 -3 4 -18 14
-35 22 -16 8 -29 19 -28 26 2 6 -6 10 -17 9 -13 -1 -19 -6 -15 -15 3 -7 -1
-23 -7 -35 -12 -22 -14 -28 -17 -47 0 -5 -8 -10 -16 -10 -8 0 -15 -7 -15 -15
0 -8 6 -15 14 -15 8 0 18 -9 21 -20 3 -11 11 -20 16 -20 5 0 9 -6 9 -14 0 -7
8 -24 18 -37 10 -13 25 -40 32 -59 8 -19 22 -44 32 -54 10 -11 18 -24 18 -29
0 -4 13 -28 30 -52 16 -24 34 -54 40 -67 5 -13 23 -45 40 -73 16 -27 33 -57
37 -65 3 -8 47 -87 97 -175 84 -149 90 -164 91 -217 0 -88 -1 -89 -408 -282
-65 -31 -121 -56 -124 -56 -3 0 -106 -49 -229 -110 -123 -60 -228 -110 -234
-110 -5 0 -10 -4 -10 -10 0 -5 -6 -10 -13 -10 -6 0 -34 -11 -60 -25 -36 -20
-56 -24 -82 -19 -19 3 -35 10 -35 15 0 5 -6 9 -13 9 -7 0 -25 12 -39 28 -27
27 -53 76 -183 347 -131 272 -230 470 -237 473 -5 2 -8 10 -8 18 0 17 -47 118
-181 389 -54 110 -99 206 -99 213 0 15 -9 15 -42 0 -15 -7 -29 -22 -32 -33 -3
-11 -6 -353 -6 -761 l0 -741 -30 -41 c-40 -56 -94 -90 -160 -102 -30 -5 -280
-14 -554 -19 -474 -9 -502 -9 -535 9 -20 10 -44 27 -54 38 -47 51 -46 39 -47
1084 0 570 4 989 9 992 5 3 328 8 717 12 657 5 804 11 804 33 0 4 23 15 50 25
28 10 50 21 50 25 0 3 14 12 30 20 45 20 250 211 250 233 0 5 4 7 8 4 5 -3 14
10 21 29 9 25 16 32 28 28 10 -4 14 -2 10 4 -4 6 0 30 9 54 9 24 16 52 16 62
-1 10 5 20 13 23 7 3 16 23 20 45 4 21 10 38 13 38 19 -3 23 2 12 16 -12 15
-5 39 10 30 4 -3 6 14 3 37 -3 29 -1 38 5 30 13 -19 21 3 15 43 -6 36 -7 140
-2 175 2 14 -1 50 -6 80 -6 43 -10 50 -17 35 -5 -13 -6 -6 -2 19 5 37 4 39
-12 25 -16 -13 -17 -12 -10 14 5 21 4 27 -5 21 -9 -5 -10 1 -5 20 5 20 4 26
-5 20 -8 -5 -11 -2 -7 7 3 8 -12 46 -32 84 -28 53 -42 69 -56 67 -11 -2 -15 1
-9 5 16 12 12 25 -15 55 -14 15 -38 43 -53 63 -16 19 -33 33 -37 30 -5 -3 -11
4 -15 15 -4 11 -11 18 -16 15 -5 -4 -9 -2 -9 3 0 8 -58 50 -146 104 -28 17
-46 23 -50 16 -4 -6 -9 -7 -13 0 -3 5 -33 17 -66 27 -54 16 -134 18 -758 25
-383 4 -699 9 -701 11 -2 2 -13 32 -25 67 -21 62 -21 69 -21 975 0 877 1 914
20 954 25 57 79 109 143 138 l52 25 486 0 485 0 45 -29z m-4405 -8 c63 -68 59
4 62 -1046 l2 -958 -22 -40 c-45 -81 -31 -79 -509 -79 -387 0 -426 2 -445 18
-12 9 -26 26 -32 37 -13 27 -21 340 -28 1205 -6 727 -6 736 14 775 11 22 30
51 43 64 46 49 56 50 487 51 l403 0 25 -27z m1397 16 c39 -20 78 -63 98 -108
18 -42 19 -77 19 -979 l0 -935 -26 -39 c-15 -21 -43 -48 -63 -61 l-36 -22
-545 4 c-593 3 -596 4 -624 60 -14 28 -28 693 -31 1511 -1 469 -2 461 63 523
58 56 63 56 615 57 357 0 515 -3 530 -11z m1553 -24 c20 -17 45 -46 55 -65 18
-33 19 -78 19 -984 l0 -950 -27 -39 c-15 -21 -44 -47 -65 -58 -36 -18 -66 -19
-596 -22 -533 -2 -560 -1 -594 17 -70 38 -65 -32 -69 1037 l-4 966 30 43 c20
29 47 51 80 67 l50 23 542 -2 541 -3 38 -30z m45 -2346 c81 -45 77 -26 81
-460 3 -369 2 -388 -16 -408 -11 -12 -35 -25 -55 -30 -58 -15 -487 -21 -1581
-23 -785 -1 -1039 2 -1083 11 -62 14 -133 60 -154 101 -9 19 -13 117 -13 381
l0 355 28 26 c64 61 71 62 502 69 217 3 812 5 1322 4 l927 -3 42 -23z m-5
-1073 c88 -41 84 -18 84 -459 l0 -388 -24 -24 c-15 -15 -40 -25 -67 -29 -107
-13 -1024 -26 -1780 -26 -898 0 -872 -1 -958 56 -73 49 -71 38 -71 435 l0 356
24 26 c27 29 81 54 141 67 22 4 616 8 1320 9 l1280 1 51 -24z m1 -1115 c34
-16 66 -38 72 -50 7 -13 11 -150 11 -410 0 -374 -1 -392 -19 -410 -11 -11 -37
-24 -58 -30 -36 -9 -838 -19 -2058 -26 -520 -3 -543 -3 -608 17 -38 11 -82 32
-98 45 -59 50 -59 50 -59 436 l0 353 28 27 c34 32 92 57 157 67 28 4 617 8
1310 9 l1260 1 62 -29z m-1 -1163 c24 -10 52 -30 63 -45 20 -25 21 -37 21
-410 0 -244 -4 -391 -10 -404 -16 -28 -59 -47 -126 -53 -32 -3 -619 -8 -1304
-11 -1228 -5 -1246 -5 -1304 15 -81 27 -121 55 -140 94 -14 29 -16 83 -16 384
l0 350 25 30 c43 52 98 65 305 72 102 4 693 5 1314 2 1078 -5 1132 -6 1172
-24z m-18 -1066 c23 -10 56 -30 72 -44 l30 -26 0 -407 0 -406 -26 -24 c-15
-14 -45 -27 -72 -31 -26 -4 -634 -7 -1352 -8 l-1305 -1 -51 29 c-98 56 -94 38
-94 462 l0 370 33 32 c29 29 59 40 172 65 11 3 589 5 1285 5 1177 1 1268 0
1308 -16z"/>
</g>
</svg>
